<svg xmlns="http://www.w3.org/2000/svg" version="1.1" xmlns:xlink="http://www.w3.org/1999/xlink" xmlns:svgjs="http://svgjs.dev/svgjs" viewBox="0 0 1422 800"><circle r="9" cx="1396" cy="602" fill="hsl(268, 45%, 79%)" opacity="0.96"></circle><circle r="12.5" cx="464" cy="771" fill="hsl(265, 45%, 79%)" opacity="0.51"></circle><circle r="18.5" cx="949" cy="590" fill="hsl(261, 45%, 79%)" opacity="0.23"></circle><circle r="19" cx="964" cy="440" fill="hsl(261, 45%, 79%)" opacity="0.66"></circle><circle r="11.5" cx="32" cy="758" fill="hsl(268, 45%, 79%)" opacity="0.65"></circle><circle r="15.5" cx="309" cy="533" fill="hsl(265, 45%, 79%)" opacity="0.36"></circle><circle r="14.5" cx="516" cy="441" fill="hsl(265, 45%, 79%)" opacity="0.71"></circle><circle r="15" cx="295" cy="694" fill="hsl(265, 45%, 79%)" opacity="0.97"></circle><circle r="18.5" cx="1067" cy="96" fill="hsl(261, 45%, 79%)" opacity="0.69"></circle><circle r="16" cx="598" cy="107" fill="hsl(263, 45%, 79%)" opacity="0.40"></circle><circle r="14.5" cx="1133" cy="147" fill="hsl(264, 45%, 79%)" opacity="0.71"></circle><circle r="12" cx="1192" cy="626" fill="hsl(266, 45%, 79%)" opacity="0.34"></circle><circle r="16" cx="718" cy="486" fill="hsl(264, 45%, 79%)" opacity="0.78"></circle><circle r="15.5" cx="565" cy="763" fill="hsl(265, 45%, 79%)" opacity="0.78"></circle><circle r="15" cx="263" cy="474" fill="hsl(266, 45%, 79%)" opacity="0.72"></circle><circle r="16" cx="667" cy="552" fill="hsl(264, 45%, 79%)" opacity="0.38"></circle><circle r="17" cx="116" cy="35" fill="hsl(264, 45%, 79%)" opacity="0.87"></circle><circle r="17.5" cx="750" cy="239" fill="hsl(263, 45%, 79%)" opacity="0.45"></circle><circle r="12" cx="1332" cy="278" fill="hsl(268, 45%, 79%)" opacity="0.92"></circle><circle r="10.5" cx="1262" cy="717" fill="hsl(267, 45%, 79%)" opacity="0.46"></circle><circle r="19.5" cx="889" cy="193" fill="hsl(261, 45%, 79%)" opacity="0.99"></circle><circle r="14" cx="234" cy="759" fill="hsl(266, 45%, 79%)" opacity="0.78"></circle><circle r="9.5" cx="1395" cy="309" fill="hsl(268, 45%, 79%)" opacity="0.91"></circle><circle r="15" cx="271" cy="267" fill="hsl(266, 45%, 79%)" opacity="0.14"></circle><circle r="9" cx="1395" cy="140" fill="hsl(268, 45%, 79%)" opacity="0.98"></circle><circle r="17.5" cx="764" cy="636" fill="hsl(263, 45%, 79%)" opacity="0.97"></circle><circle r="15.5" cx="587" cy="31" fill="hsl(263, 45%, 79%)" opacity="0.32"></circle><circle r="10" cx="1344" cy="575" fill="hsl(268, 45%, 79%)" opacity="0.16"></circle><circle r="21.5" cx="996" cy="144" fill="hsl(260, 45%, 79%)" opacity="0.37"></circle><circle r="15" cx="566" cy="673" fill="hsl(265, 45%, 79%)" opacity="0.71"></circle><circle r="15" cx="169" cy="363" fill="hsl(267, 45%, 79%)" opacity="0.99"></circle><circle r="19" cx="854" cy="629" fill="hsl(262, 45%, 79%)" opacity="0.98"></circle><circle r="15" cx="1085" cy="410" fill="hsl(263, 45%, 79%)" opacity="0.66"></circle><circle r="11.5" cx="1191" cy="310" fill="hsl(266, 45%, 79%)" opacity="0.37"></circle><circle r="16" cx="608" cy="283" fill="hsl(265, 45%, 79%)" opacity="0.18"></circle><circle r="9" cx="1300" cy="768" fill="hsl(268, 45%, 79%)" opacity="0.81"></circle><circle r="19" cx="716" cy="93" fill="hsl(261, 45%, 79%)" opacity="0.30"></circle><circle r="16" cx="1056" cy="354" fill="hsl(263, 45%, 79%)" opacity="0.97"></circle><circle r="15.5" cx="582" cy="446" fill="hsl(265, 45%, 79%)" opacity="0.67"></circle><circle r="11.5" cx="1239" cy="514" fill="hsl(267, 45%, 79%)" opacity="0.61"></circle><circle r="15.5" cx="418" cy="254" fill="hsl(265, 45%, 79%)" opacity="0.36"></circle><circle r="14" cx="109" cy="443" fill="hsl(267, 45%, 79%)" opacity="0.83"></circle><circle r="16.5" cx="267" cy="128" fill="hsl(265, 45%, 79%)" opacity="0.41"></circle><circle r="17.5" cx="1018" cy="580" fill="hsl(262, 45%, 79%)" opacity="0.63"></circle><circle r="9.5" cx="1393" cy="719" fill="hsl(268, 45%, 79%)" opacity="0.16"></circle><circle r="16" cx="184" cy="272" fill="hsl(267, 45%, 79%)" opacity="0.66"></circle><circle r="11" cx="1212" cy="363" fill="hsl(267, 45%, 79%)" opacity="0.77"></circle><circle r="21.5" cx="933" cy="122" fill="hsl(259, 45%, 79%)" opacity="0.13"></circle><circle r="14" cx="1162" cy="414" fill="hsl(266, 45%, 79%)" opacity="0.55"></circle><circle r="15" cx="588" cy="359" fill="hsl(265, 45%, 79%)" opacity="0.88"></circle><circle r="20.5" cx="912" cy="386" fill="hsl(261, 45%, 79%)" opacity="0.85"></circle><circle r="17" cx="310" cy="198" fill="hsl(265, 45%, 79%)" opacity="0.11"></circle><circle r="12.5" cx="1123" cy="772" fill="hsl(265, 45%, 79%)" opacity="0.51"></circle><circle r="18.5" cx="195" cy="40" fill="hsl(264, 45%, 79%)" opacity="0.68"></circle><circle r="9.5" cx="1395" cy="664" fill="hsl(268, 45%, 79%)" opacity="0.11"></circle><circle r="12.5" cx="34" cy="591" fill="hsl(268, 45%, 79%)" opacity="0.54"></circle><circle r="15" cx="1083" cy="575" fill="hsl(263, 45%, 79%)" opacity="0.22"></circle><circle r="13" cx="166" cy="756" fill="hsl(267, 45%, 79%)" opacity="0.89"></circle><circle r="10.5" cx="1245" cy="772" fill="hsl(267, 45%, 79%)" opacity="0.15"></circle><circle r="15.5" cx="534" cy="101" fill="hsl(264, 45%, 79%)" opacity="0.93"></circle><circle r="16.5" cx="1071" cy="642" fill="hsl(263, 45%, 79%)" opacity="0.52"></circle><circle r="15" cx="40" cy="139" fill="hsl(267, 45%, 79%)" opacity="0.48"></circle><circle r="10" cx="1309" cy="404" fill="hsl(268, 45%, 79%)" opacity="0.70"></circle><circle r="15" cx="690" cy="26" fill="hsl(260, 45%, 79%)" opacity="0.36"></circle><circle r="14" cx="525" cy="372" fill="hsl(265, 45%, 79%)" opacity="0.14"></circle><circle r="10" cx="1394" cy="536" fill="hsl(268, 45%, 79%)" opacity="0.15"></circle><circle r="16" cx="982" cy="771" fill="hsl(262, 45%, 79%)" opacity="0.36"></circle><circle r="23.5" cx="861" cy="34" fill="hsl(257, 45%, 79%)" opacity="0.92"></circle><circle r="15" cx="44" cy="507" fill="hsl(268, 45%, 79%)" opacity="0.30"></circle><circle r="10.5" cx="1290" cy="546" fill="hsl(268, 45%, 79%)" opacity="0.63"></circle><circle r="11" cx="1294" cy="610" fill="hsl(268, 45%, 79%)" opacity="0.61"></circle><circle r="11.5" cx="1239" cy="420" fill="hsl(267, 45%, 79%)" opacity="1.00"></circle><circle r="9.5" cx="1297" cy="671" fill="hsl(268, 45%, 79%)" opacity="0.22"></circle><circle r="18.5" cx="887" cy="286" fill="hsl(261, 45%, 79%)" opacity="0.49"></circle><circle r="9" cx="1394" cy="45" fill="hsl(269, 45%, 79%)" opacity="0.17"></circle><circle r="20.5" cx="849" cy="427" fill="hsl(262, 45%, 79%)" opacity="0.37"></circle><circle r="18.5" cx="1000" cy="648" fill="hsl(262, 45%, 79%)" opacity="0.71"></circle><circle r="18.5" cx="813" cy="573" fill="hsl(262, 45%, 79%)" opacity="0.12"></circle><circle r="18" cx="903" cy="768" fill="hsl(261, 45%, 79%)" opacity="0.75"></circle><circle r="13.5" cx="33" cy="316" fill="hsl(268, 45%, 79%)" opacity="0.56"></circle><circle r="15" cx="1055" cy="770" fill="hsl(263, 45%, 79%)" opacity="0.80"></circle><circle r="18" cx="797" cy="697" fill="hsl(263, 45%, 79%)" opacity="0.58"></circle><circle r="15.5" cx="466" cy="315" fill="hsl(265, 45%, 79%)" opacity="0.16"></circle><circle r="12.5" cx="1212" cy="248" fill="hsl(267, 45%, 79%)" opacity="0.41"></circle><circle r="16" cx="1074" cy="290" fill="hsl(263, 45%, 79%)" opacity="0.12"></circle><circle r="8.5" cx="1350" cy="770" fill="hsl(268, 45%, 79%)" opacity="0.50"></circle><circle r="16" cx="631" cy="698" fill="hsl(265, 45%, 79%)" opacity="0.10"></circle><circle r="16" cx="192" cy="121" fill="hsl(266, 45%, 79%)" opacity="0.32"></circle><circle r="13" cx="1160" cy="203" fill="hsl(266, 45%, 79%)" opacity="0.31"></circle><circle r="16.5" cx="744" cy="766" fill="hsl(263, 45%, 79%)" opacity="0.87"></circle><circle r="16" cx="1199" cy="37" fill="hsl(264, 45%, 79%)" opacity="0.34"></circle><circle r="15.5" cx="429" cy="626" fill="hsl(265, 45%, 79%)" opacity="0.55"></circle><circle r="13.5" cx="1209" cy="122" fill="hsl(266, 45%, 79%)" opacity="0.58"></circle><circle r="18" cx="996" cy="379" fill="hsl(262, 45%, 79%)" opacity="0.62"></circle><circle r="16.5" cx="385" cy="504" fill="hsl(265, 45%, 79%)" opacity="0.65"></circle><circle r="11" cx="1279" cy="469" fill="hsl(268, 45%, 79%)" opacity="0.63"></circle><circle r="11.5" cx="1239" cy="583" fill="hsl(267, 45%, 79%)" opacity="0.13"></circle><circle r="15.5" cx="128" cy="194" fill="hsl(267, 45%, 79%)" opacity="0.26"></circle><circle r="14" cx="1113" cy="468" fill="hsl(265, 45%, 79%)" opacity="0.43"></circle><circle r="9.5" cx="1345" cy="446" fill="hsl(268, 45%, 79%)" opacity="0.12"></circle><circle r="12.5" cx="1153" cy="722" fill="hsl(265, 45%, 79%)" opacity="0.63"></circle><circle r="14" cx="562" cy="166" fill="hsl(265, 45%, 79%)" opacity="0.54"></circle><circle r="13.5" cx="1137" cy="598" fill="hsl(265, 45%, 79%)" opacity="0.53"></circle><circle r="19" cx="1004" cy="294" fill="hsl(262, 45%, 79%)" opacity="0.32"></circle><circle r="17" cx="368" cy="581" fill="hsl(265, 45%, 79%)" opacity="0.44"></circle><circle r="17" cx="355" cy="658" fill="hsl(265, 45%, 79%)" opacity="0.86"></circle><circle r="15" cx="409" cy="116" fill="hsl(264, 45%, 79%)" opacity="0.20"></circle><circle r="15.5" cx="1090" cy="709" fill="hsl(264, 45%, 79%)" opacity="0.59"></circle><circle r="15.5" cx="458" cy="392" fill="hsl(265, 45%, 79%)" opacity="0.29"></circle><circle r="15.5" cx="536" cy="299" fill="hsl(265, 45%, 79%)" opacity="0.66"></circle><circle r="11" cx="1269" cy="87" fill="hsl(267, 45%, 79%)" opacity="0.68"></circle><circle r="15.5" cx="187" cy="451" fill="hsl(267, 45%, 79%)" opacity="0.26"></circle><circle r="15" cx="187" cy="603" fill="hsl(267, 45%, 79%)" opacity="0.92"></circle><circle r="16.5" cx="346" cy="275" fill="hsl(265, 45%, 79%)" opacity="0.93"></circle><circle r="11" cx="1347" cy="348" fill="hsl(268, 45%, 79%)" opacity="0.24"></circle><circle r="9.5" cx="1335" cy="711" fill="hsl(268, 45%, 79%)" opacity="0.75"></circle><circle r="15" cx="660" cy="337" fill="hsl(265, 45%, 79%)" opacity="0.81"></circle><circle r="15.5" cx="389" cy="188" fill="hsl(265, 45%, 79%)" opacity="0.98"></circle><circle r="11" cx="1331" cy="33" fill="hsl(268, 45%, 79%)" opacity="0.50"></circle><circle r="17.5" cx="713" cy="701" fill="hsl(264, 45%, 79%)" opacity="0.96"></circle><circle r="15" cx="1150" cy="87" fill="hsl(263, 45%, 79%)" opacity="0.82"></circle><circle r="14.5" cx="105" cy="594" fill="hsl(267, 45%, 79%)" opacity="0.48"></circle><circle r="18" cx="825" cy="766" fill="hsl(262, 45%, 79%)" opacity="0.33"></circle><circle r="20.5" cx="815" cy="75" fill="hsl(258, 45%, 79%)" opacity="0.84"></circle><circle r="18.5" cx="944" cy="320" fill="hsl(261, 45%, 79%)" opacity="0.88"></circle><circle r="16.5" cx="782" cy="505" fill="hsl(263, 45%, 79%)" opacity="0.88"></circle><circle r="16.5" cx="1024" cy="710" fill="hsl(262, 45%, 79%)" opacity="0.25"></circle><circle r="20.5" cx="845" cy="352" fill="hsl(262, 45%, 79%)" opacity="0.51"></circle><circle r="15" cx="534" cy="586" fill="hsl(265, 45%, 79%)" opacity="0.85"></circle><circle r="15" cx="470" cy="93" fill="hsl(264, 45%, 79%)" opacity="0.55"></circle><circle r="10.5" cx="1343" cy="103" fill="hsl(268, 45%, 79%)" opacity="0.94"></circle><circle r="15" cx="488" cy="238" fill="hsl(265, 45%, 79%)" opacity="0.96"></circle><circle r="17" cx="796" cy="297" fill="hsl(263, 45%, 79%)" opacity="0.81"></circle><circle r="16" cx="220" cy="199" fill="hsl(266, 45%, 79%)" opacity="0.45"></circle><circle r="15.5" cx="114" cy="111" fill="hsl(266, 45%, 79%)" opacity="0.88"></circle><circle r="11" cx="1344" cy="188" fill="hsl(268, 45%, 79%)" opacity="0.28"></circle><circle r="17" cx="708" cy="404" fill="hsl(264, 45%, 79%)" opacity="0.33"></circle><circle r="17.5" cx="1123" cy="31" fill="hsl(261, 45%, 79%)" opacity="0.36"></circle><circle r="12.5" cx="1286" cy="227" fill="hsl(268, 45%, 79%)" opacity="0.27"></circle><circle r="19.5" cx="1019" cy="222" fill="hsl(262, 45%, 79%)" opacity="0.34"></circle><circle r="15.5" cx="329" cy="443" fill="hsl(265, 45%, 79%)" opacity="0.30"></circle><circle r="10.5" cx="1245" cy="650" fill="hsl(267, 45%, 79%)" opacity="0.95"></circle><circle r="15.5" cx="454" cy="476" fill="hsl(265, 45%, 79%)" opacity="0.26"></circle><circle r="16.5" cx="607" cy="607" fill="hsl(265, 45%, 79%)" opacity="0.75"></circle><circle r="15.5" cx="646" cy="65" fill="hsl(262, 45%, 79%)" opacity="0.54"></circle><circle r="15.5" cx="677" cy="257" fill="hsl(264, 45%, 79%)" opacity="0.83"></circle><circle r="16" cx="215" cy="678" fill="hsl(266, 45%, 79%)" opacity="0.29"></circle><circle r="13.5" cx="1139" cy="662" fill="hsl(265, 45%, 79%)" opacity="0.89"></circle><circle r="17.5" cx="680" cy="632" fill="hsl(264, 45%, 79%)" opacity="0.91"></circle><circle r="18" cx="779" cy="432" fill="hsl(263, 45%, 79%)" opacity="0.26"></circle><circle r="15.5" cx="394" cy="418" fill="hsl(265, 45%, 79%)" opacity="0.19"></circle><circle r="13.5" cx="1140" cy="274" fill="hsl(265, 45%, 79%)" opacity="0.11"></circle><circle r="9.5" cx="1346" cy="641" fill="hsl(268, 45%, 79%)" opacity="0.70"></circle><circle r="18.5" cx="1052" cy="29" fill="hsl(259, 45%, 79%)" opacity="0.25"></circle><circle r="17.5" cx="1030" cy="453" fill="hsl(262, 45%, 79%)" opacity="0.46"></circle><circle r="14.5" cx="137" cy="522" fill="hsl(267, 45%, 79%)" opacity="0.77"></circle><circle r="23.5" cx="929" cy="39" fill="hsl(256, 45%, 79%)" opacity="0.90"></circle><circle r="15.5" cx="377" cy="759" fill="hsl(265, 45%, 79%)" opacity="0.59"></circle><circle r="19" cx="846" cy="502" fill="hsl(262, 45%, 79%)" opacity="0.22"></circle><circle r="16.5" cx="1053" cy="515" fill="hsl(263, 45%, 79%)" opacity="0.97"></circle><circle r="13.5" cx="1131" cy="526" fill="hsl(265, 45%, 79%)" opacity="0.72"></circle><circle r="16.5" cx="771" cy="364" fill="hsl(263, 45%, 79%)" opacity="0.68"></circle><circle r="17" cx="656" cy="140" fill="hsl(263, 45%, 79%)" opacity="0.46"></circle><circle r="14.5" cx="305" cy="766" fill="hsl(265, 45%, 79%)" opacity="0.18"></circle><circle r="16" cx="1131" cy="350" fill="hsl(265, 45%, 79%)" opacity="0.77"></circle><circle r="20" cx="769" cy="32" fill="hsl(259, 45%, 79%)" opacity="0.95"></circle><circle r="18" cx="38" cy="47" fill="hsl(265, 45%, 79%)" opacity="0.34"></circle><circle r="16" cx="455" cy="556" fill="hsl(265, 45%, 79%)" opacity="0.61"></circle><circle r="12" cx="1228" cy="184" fill="hsl(267, 45%, 79%)" opacity="0.47"></circle><circle r="18.5" cx="909" cy="476" fill="hsl(261, 45%, 79%)" opacity="0.29"></circle><circle r="11.5" cx="1190" cy="769" fill="hsl(266, 45%, 79%)" opacity="0.24"></circle><circle r="16.5" cx="597" cy="527" fill="hsl(265, 45%, 79%)" opacity="0.19"></circle><circle r="19" cx="775" cy="125" fill="hsl(260, 45%, 79%)" opacity="0.68"></circle><circle r="10.5" cx="1281" cy="349" fill="hsl(268, 45%, 79%)" opacity="0.15"></circle><circle r="10.5" cx="1336" cy="508" fill="hsl(268, 45%, 79%)" opacity="0.84"></circle><circle r="14.5" cx="251" cy="402" fill="hsl(266, 45%, 79%)" opacity="0.36"></circle><circle r="21" cx="863" cy="122" fill="hsl(259, 45%, 79%)" opacity="0.77"></circle><circle r="11" cx="1264" cy="28" fill="hsl(266, 45%, 79%)" opacity="0.68"></circle><circle r="8" cx="1399" cy="773" fill="hsl(268, 45%, 79%)" opacity="0.31"></circle><circle r="15" cx="495" cy="645" fill="hsl(265, 45%, 79%)" opacity="0.23"></circle><circle r="10.5" cx="1392" cy="230" fill="hsl(268, 45%, 79%)" opacity="0.51"></circle><circle r="18" cx="952" cy="712" fill="hsl(261, 45%, 79%)" opacity="0.15"></circle><circle r="14" cx="33" cy="416" fill="hsl(268, 45%, 79%)" opacity="0.87"></circle><circle r="18" cx="736" cy="568" fill="hsl(263, 45%, 79%)" opacity="0.78"></circle><circle r="16.5" cx="396" cy="338" fill="hsl(265, 45%, 79%)" opacity="0.57"></circle><circle r="15" cx="653" cy="474" fill="hsl(265, 45%, 79%)" opacity="0.63"></circle><circle r="13" cx="1190" cy="475" fill="hsl(266, 45%, 79%)" opacity="0.52"></circle><circle r="12" cx="1205" cy="697" fill="hsl(267, 45%, 79%)" opacity="0.43"></circle><circle r="15.5" cx="525" cy="513" fill="hsl(265, 45%, 79%)" opacity="0.63"></circle><circle r="15" cx="1092" cy="224" fill="hsl(264, 45%, 79%)" opacity="0.14"></circle><circle r="15" cx="223" cy="536" fill="hsl(266, 45%, 79%)" opacity="0.70"></circle><circle r="15" cx="41" cy="225" fill="hsl(268, 45%, 79%)" opacity="0.33"></circle><circle r="16.5" cx="321" cy="357" fill="hsl(265, 45%, 79%)" opacity="0.37"></circle><circle r="14.5" cx="507" cy="31" fill="hsl(264, 45%, 79%)" opacity="0.45"></circle><circle r="17.5" cx="277" cy="610" fill="hsl(266, 45%, 79%)" opacity="0.61"></circle><circle r="12.5" cx="1187" cy="551" fill="hsl(266, 45%, 79%)" opacity="0.32"></circle><circle r="15" cx="639" cy="405" fill="hsl(265, 45%, 79%)" opacity="0.11"></circle><circle r="18.5" cx="271" cy="43" fill="hsl(264, 45%, 79%)" opacity="0.86"></circle><circle r="13.5" cx="94" cy="362" fill="hsl(267, 45%, 79%)" opacity="0.84"></circle><circle r="14" cx="242" cy="331" fill="hsl(266, 45%, 79%)" opacity="0.27"></circle><circle r="16.5" cx="422" cy="701" fill="hsl(265, 45%, 79%)" opacity="0.76"></circle><circle r="11" cx="1260" cy="293" fill="hsl(267, 45%, 79%)" opacity="0.37"></circle><circle r="18" cx="348" cy="38" fill="hsl(264, 45%, 79%)" opacity="0.35"></circle><circle r="15.5" cx="130" cy="674" fill="hsl(267, 45%, 79%)" opacity="0.50"></circle><circle r="17" cx="805" cy="183" fill="hsl(262, 45%, 79%)" opacity="0.18"></circle><circle r="9" cx="1396" cy="469" fill="hsl(268, 45%, 79%)" opacity="0.89"></circle><circle r="16" cx="722" cy="314" fill="hsl(264, 45%, 79%)" opacity="0.36"></circle><circle r="14.5" cx="656" cy="767" fill="hsl(265, 45%, 79%)" opacity="0.76"></circle><circle r="13.5" cx="559" cy="229" fill="hsl(265, 45%, 79%)" opacity="0.22"></circle><circle r="16.5" cx="424" cy="35" fill="hsl(264, 45%, 79%)" opacity="0.11"></circle><circle r="20" cx="873" cy="702" fill="hsl(261, 45%, 79%)" opacity="0.24"></circle></svg>