<svg xmlns="http://www.w3.org/2000/svg" version="1.1" xmlns:xlink="http://www.w3.org/1999/xlink" xmlns:svgjs="http://svgjs.dev/svgjs" viewBox="0 0 1422 800"><defs><filter id="uuunion-blur" x="-100%" y="-100%" width="400%" height="400%" color-interpolation-filters="sRGB">
        <feGaussianBlur in="SourceGraphic" stdDeviation="6.5 0" result="blur"></feGaussianBlur>
        <feDropShadow stdDeviation="41.84615384615385" in="blur" dx="34" dy="34" flood-color="hsl(167, 52%, 78%)" flood-opacity="0.64" x="0%" y="0%" width="100%" height="100%"></feDropShadow>
      </filter><filter id="uuunion-blur2" x="-100%" y="-100%" width="400%" height="400%" color-interpolation-filters="sRGB">
        <feGaussianBlur in="SourceGraphic" stdDeviation="6.5 0" result="blur"></feGaussianBlur>
        <feDropShadow stdDeviation="41.84615384615385" in="blur" dx="-34" dy="-34" flood-color="hsl(167, 52%, 78%)" flood-opacity="0.64" x="0%" y="0%" width="100%" height="100%"></feDropShadow>
      </filter><linearGradient gradientTransform="rotate(191, 0.5, 0.5)" x1="50%" y1="0%" x2="50%" y2="100%" id="uuunion-grad"><stop stop-color="hsl(1.4, 100%, 67%)" offset="10%"></stop><stop stop-color="hsl(167, 52%, 78%)" offset="90%"></stop></linearGradient><linearGradient gradientTransform="rotate(190, 0.5, 0.5)" x1="50%" y1="0%" x2="50%" y2="100%" id="uuunion-grad2"><stop stop-color="hsl(1.4, 100%, 67%)" offset="25%"></stop><stop stop-color="hsl(167, 52%, 78%)" offset="100%"></stop></linearGradient><linearGradient gradientTransform="rotate(169, 0.5, 0.5)" x1="50%" y1="0%" x2="50%" y2="100%" id="uuunion-grad3"><stop stop-color="hsl(1.4, 100%, 67%)" offset="0%"></stop><stop stop-color="hsl(167, 52%, 78%)" offset="75%"></stop></linearGradient></defs><path d="M-126.86 -74.5Q-114.01 -78.06 -101.16 -82.12 -88.31 -85.63 -75.46 -87.69 -62.61 -87.77 -49.75 -85.85 -36.9 -82.43 -24.05 -78.38 -11.2 -74.74 1.64 -72.46 14.49 -72.11 27.34 -73.79 40.19 -77.07 53.04 -81.1 65.9 -84.85 78.75 -87.34 91.6 -87.95 104.45 -86.51 117.3 -83.4 130.15 -79.41 143 -75.57 155.85 -72.87 168.7 -72 181.56 -73.19 194.41 -76.13 207.26 -80.06 220.11 -83.98 232.96 -86.87 245.81 -87.99 258.66 -87.06 271.51 -84.31 284.36 -80.45 297.22 -76.47 310.07 -73.4 322.92 -72.03 335.77 -72.7 348.62 -75.25 361.47 -79.02 374.32 -83.04 387.17 -86.28 400.03 -87.9 412.88 -87.49 425.73 -85.15 438.58 -81.48 451.43 -77.44 464.28 -74.05 477.13 -72.19 489.98 -72.34 502.83 -74.45 515.69 -78 528.54 -82.05 541.39 -85.58 554.24 -87.67 567.09 -87.79 579.94 -85.9 592.79 -82.49 605.64 -78.44 618.49 -74.79 631.35 -72.48 644.2 -72.1 657.05 -73.75 669.9 -77.01 682.75 -81.03 695.6 -84.79 708.45 -87.31 721.3 -87.96 734.16 -86.55 747.01 -83.46 759.86 -79.48 772.71 -75.63 785.56 -72.9 798.41 -72 811.26 -73.15 824.11 -76.07 836.97 -79.99 849.82 -83.92 862.67 -86.83 875.52 -87.99 888.37 -87.09 901.22 -84.37 914.07 -80.52 926.92 -76.54 939.77 -73.44 952.63 -72.03 965.48 -72.67 978.33 -75.2 991.18 -78.95 1004.03 -82.98 1016.88 -86.24 1029.73 -87.89 1042.58 -87.51 1055.44 -85.2 1068.29 -81.55 1081.14 -77.5 1093.99 -74.09 1106.84 -72.2 1119.69 -72.32 1132.54 -74.4 1145.39 -77.93 1158.25 -81.99 1171.1 -85.53 1183.95 -87.65 1196.8 -87.8 1209.65 -85.95 1222.5 -82.56 1235.35 -78.51 1248.2 -74.85 1261.06 -72.5 1273.91 -72.09 1286.76 -73.71 1299.61 -76.94 1312.46 -80.96 1325.31 -84.74 1338.16 -87.29 1351.01 -87.96 1363.86 -86.59 1376.72 -83.52 1389.57 -79.55 1402.42 -75.68 1415.27 -72.93 1428.12 -72 1440.97 -73.12 1453.82 -76.01 1466.67 -79.92 1479.53 -83.86 1492.38 -86.8 1505.23 -87.99 1518.08 -87.12 1521.23 -72.46 1527.57 -57.79 1536.6 -43.13 1547.68 -28.46 1559.98 -13.79 1572.59 0.86 1584.58 15.53 1595.06 30.19 1603.26 44.86 1608.58 59.53 1610.61 74.19 1609.21 88.86 1604.48 103.52 1596.78 118.19 1586.67 132.86 1574.89 147.52 1562.33 162.19 1549.9 176.85 1538.53 191.52 1529.06 206.18 1522.18 220.85 1518.41 235.52 1518.03 250.18 1521.05 264.85 1527.27 279.51 1536.21 294.18 1547.23 308.85 1559.5 323.51 1572.11 338.18 1584.14 352.84 1594.7 367.51 1603 382.18 1608.43 396.84 1610.59 411.51 1609.33 426.17 1604.72 440.84 1597.12 455.5 1587.09 470.17 1575.36 484.84 1562.81 499.5 1550.36 514.17 1538.94 528.83 1529.38 543.5 1522.39 558.17 1518.5 572.83 1517.98 587.5 1520.88 602.16 1526.98 616.83 1535.83 631.5 1546.78 646.16 1559.01 660.83 1571.63 675.49 1583.7 690.16 1594.33 704.82 1602.73 719.49 1608.28 734.16 1610.57 748.82 1609.44 763.49 1604.96 778.15 1597.46 792.82 1587.51 807.49 1575.84 822.15 1563.3 836.82 1550.83 851.48 1537.64 848.02 1524.44 852.78 1511.25 864.55 1498.06 880.28 1484.87 895.94 1471.68 907.5 1458.48 911.99 1445.29 908.24 1432.1 897.24 1418.91 881.79 1405.71 865.89 1392.52 853.61 1379.33 848.12 1366.14 850.83 1352.95 861.03 1339.75 876.12 1326.56 892.2 1313.37 905.14 1300.18 911.62 1286.99 909.96 1273.79 900.59 1260.6 885.93 1247.41 869.74 1234.22 856.19 1221.03 848.76 1207.83 849.36 1194.64 857.85 1181.45 872.02 1168.26 888.25 1155.07 902.36 1141.87 910.71 1128.68 911.16 1115.49 903.6 1102.3 889.97 1089.1 873.77 1075.91 859.17 1062.72 849.93 1049.53 848.42 1036.34 855.03 1023.14 868.06 1009.95 884.17 996.76 899.19 983.57 909.28 970.38 911.84 957.18 906.21 943.99 893.83 930.8 877.9 917.61 862.5 904.42 851.61 891.22 848.01 878.03 852.64 864.84 864.31 851.65 880.01 838.46 895.7 825.26 907.36 812.07 911.98 798.88 908.37 785.69 897.47 772.5 882.07 759.3 866.14 746.11 853.77 732.92 848.15 719.73 850.72 706.53 860.82 693.34 875.85 680.15 891.95 666.96 904.97 653.77 911.57 640.57 910.05 627.38 900.8 614.19 886.2 601 870 587.81 856.37 574.61 848.82 561.42 849.29 548.23 857.65 535.04 871.76 521.85 887.99 508.65 902.16 495.46 910.63 482.27 911.22 469.08 903.79 455.89 890.23 442.69 874.04 429.5 859.38 416.31 850.02 403.12 848.38 389.93 854.86 376.73 867.81 363.54 883.89 350.35 898.97 337.16 909.17 323.97 911.87 310.77 906.37 297.58 894.08 284.39 878.18 271.2 862.74 258.01 851.74 244.81 848 231.62 852.5 218.43 864.07 205.24 879.73 192.05 895.46 178.85 907.22 165.66 911.97 152.47 908.5 139.28 897.7 126.09 882.34 112.89 866.39 99.7 853.93 86.51 848.17 73.32 850.6 60.13 860.59 46.93 875.57 33.74 891.69 20.55 904.8 7.36 911.53 -5.82 910.15 -19.02 901.01 -32.21 886.47 -45.4 870.27 -58.59 856.56 -71.78 848.89 -84.98 849.21 -98.17 857.45 -111.36 871.49 -133.22 887.21 -146.05 871.44 -149.93 856.19 -153.24 840.93 -155.73 825.67 -157.22 810.41 -157.6 795.16 -156.83 779.9 -154.99 764.64 -152.2 749.38 -148.67 734.13 -144.66 718.87 -140.46 703.61 -136.4 688.35 -132.76 673.1 -129.82 657.84 -127.79 642.58 -126.83 627.33 -127 612.07 -128.29 596.81 -130.62 581.55 -133.79 566.3 -137.59 551.04 -141.73 535.78 -145.9 520.52 -149.79 505.27 -153.13 490.01 -155.65 474.75 -157.18 459.49 -157.6 444.24 -156.88 428.98 -155.08 413.72 -152.32 398.46 -148.81 383.21 -144.82 367.95 -140.62 352.69 -136.55 337.44 -132.89 322.18 -129.91 306.92 -127.85 291.66 -126.84 276.41 -126.97 261.15 -128.22 245.89 -130.51 230.63 -133.66 215.38 -137.44 200.12 -141.56 184.86 -145.74 169.6 -149.65 154.35 -153.01 139.09 -155.57 123.83 -157.14 108.57 -157.61 93.32 -156.93 78.06 -155.17 62.8 -152.44 47.54 -148.96 32.29 -144.97 17.03 -140.78 1.77 -136.7 -13.47 -133.02 -28.73 -130.01 -43.99 -127.91 -59.25 -126.86 -74.5" fill="url(#uuunion-grad)"></path><path d="M-126.87 -74.5Q-127.92 -59.24 -130.02 -43.99 -133.03 -28.73 -136.71 -13.47 -140.79 1.78 -144.98 17.03 -148.97 32.29 -152.45 47.55 -155.18 62.81 -156.94 78.06 -157.62 93.32 -157.15 108.58 -155.58 123.84 -153.02 139.09 -149.66 154.35 -145.75 169.61 -141.57 184.87 -137.45 200.12 -133.67 215.38 -130.52 230.64 -128.23 245.9 -126.98 261.15 -126.85 276.41 -127.86 291.67 -129.92 306.93 -132.9 322.18 -136.56 337.44 -140.63 352.7 -144.83 367.96 -148.82 383.21 -138.38 398.98 -118.46 388.53 -109.31 383.7 -100.15 380.76 -90.99 380.04 -81.84 381.63 -72.68 385.34 -63.52 390.76 -54.37 397.24 -45.21 404.04 -36.05 410.37 -26.9 415.5 -9.59 419.67 -6.53 419.94 5.21 414.32 16.95 405.61 28.7 394.82 40.43 383.34 52.14 372.67 63.84 364.15 75.52 358.73 87.17 356.78 98.8 358.09 110.39 361.81 121.96 366.72 133.48 371.37 144.97 374.37 156.42 374.64 167.82 371.6 179.18 365.25 190.5 356.21 201.77 345.55 213 334.63 224.18 324.84 235.31 317.37 246.4 312.98 257.44 311.85 268.44 313.62 279.39 317.37 290.3 321.87 301.18 325.74 312.01 327.75 322.81 326.99 333.58 323.06 344.31 316.13 355.02 306.92 365.7 296.52 376.37 286.25 387.01 277.39 397.64 270.93 408.26 267.47 418.87 267.02 429.48 269.09 440.09 272.73 450.71 276.7 461.34 279.75 471.98 280.78 482.63 279.06 493.31 274.37 504.01 267.02 514.75 257.78 525.51 247.78 536.31 238.23 547.16 230.29 558.04 224.79 568.97 222.15 579.95 222.24 590.99 224.46 602.08 227.84 613.22 231.21 624.43 233.4 635.69 233.48 647.02 230.9 658.41 225.59 669.86 217.96 681.38 208.85 692.96 199.33 704.61 190.55 716.32 183.52 728.1 178.91 739.93 176.96 751.83 177.44 763.79 179.67 775.8 182.69 787.87 185.38 799.98 186.71 812.15 185.91 824.36 182.57 836.61 176.77 848.9 169.02 861.22 160.15 873.57 151.2 885.94 143.22 898.33 137.06 910.74 133.24 923.15 131.86 935.56 132.58 947.98 134.69 960.38 137.24 972.77 139.21 985.13 139.7 997.47 138.08 1009.78 134.12 1022.05 127.97 1034.27 120.22 1046.45 111.71 1058.57 103.4 1070.62 96.21 1082.61 90.87 1094.53 87.74 1106.37 86.79 1118.13 87.61 1129.8 89.48 1141.37 91.49 1152.86 92.71 1164.24 92.4 1175.52 90.06 1186.69 85.59 1197.75 79.24 1208.7 71.62 1219.54 63.55 1230.26 55.91 1240.87 49.51 1251.35 44.91 1261.73 42.35 1271.98 41.7 1282.12 42.49 1292.14 44.01 1302.04 45.42 1311.84 45.91 1321.52 44.85 1331.1 41.89 1340.58 37.03 1349.95 30.62 1359.23 23.25 1368.42 15.69 1377.53 8.75 1386.56 3.09 1395.51 -0.85 1404.4 -2.97 1413.22 -3.46 1422 -2.81 1409.08 -20.19 1397.47 -37.57 1388.31 -54.94 1382.54 -72.32 1380.73 -89.7 1383.06 -107.07 1389.3 -124.45 1398.82 -141.83 1386.76 -144.47 1374.7 -146.13 1362.64 -146.44 1350.57 -145.33 1338.51 -143.04 1326.45 -140.09 1314.39 -137.12 1302.33 -134.78 1290.26 -133.58 1278.2 -133.8 1266.14 -135.38 1254.08 -137.98 1242.02 -141.02 1229.96 -143.84 1217.89 -145.8 1205.83 -146.49 1193.77 -145.75 1181.71 -143.75 1169.65 -140.91 1157.58 -137.88 1145.52 -135.31 1133.46 -133.77 1121.4 -133.6 1109.34 -134.84 1097.27 -137.22 1085.21 -140.2 1073.15 -143.14 1061.09 -145.39 1049.03 -146.45 1036.96 -146.09 1024.9 -144.39 1012.84 -141.72 1000.78 -138.67 988.72 -135.92 976.66 -134.06 964.59 -133.5 952.53 -134.38 940.47 -136.49 928.41 -139.38 916.35 -142.4 904.28 -144.89 892.22 -146.3 880.16 -146.33 868.1 -144.96 856.04 -142.5 843.97 -139.49 831.91 -136.59 819.85 -134.44 807.79 -133.51 795.73 -134.01 783.66 -135.83 771.6 -138.56 759.54 -141.61 747.48 -144.31 735.42 -146.05 723.35 -146.46 711.29 -145.45 699.23 -143.24 687.17 -140.31 675.11 -137.32 663.05 -134.91 650.98 -133.62 638.92 -133.74 626.86 -135.23 614.8 -137.77 602.74 -140.8 590.67 -143.65 578.61 -145.7 566.55 -146.49 554.49 -145.85 542.43 -143.93 530.36 -141.13 518.3 -138.09 506.24 -135.46 494.18 -133.84 482.12 -133.57 470.05 -134.71 457.99 -137.02 445.93 -139.98 433.87 -142.94 421.81 -145.26 409.75 -146.42 397.68 -146.16 385.62 -144.55 373.56 -141.93 361.5 -138.89 349.44 -136.09 337.37 -134.15 325.31 -133.5 313.25 -134.27 301.19 -136.31 289.13 -139.16 277.06 -142.19 265 -144.74 252.94 -146.24 240.88 -146.37 228.82 -145.1 216.75 -142.7 204.69 -139.71 192.63 -136.78 180.57 -134.56 168.51 -133.53 156.45 -133.93 144.38 -135.66 132.32 -138.35 120.26 -141.4 108.2 -144.14 96.14 -145.97 84.07 -146.48 72.01 -145.57 59.95 -143.43 47.89 -140.53 35.83 -137.52 23.76 -135.05 11.7 -133.67 -0.35 -133.68 -12.41 -135.08 -24.47 -137.56 -36.54 -140.58 -48.6 -143.47 -60.66 -145.59 -72.72 -146.48 -84.78 -145.95 -96.84 -144.1 -108.91 -141.35 -120.97 -138.3 -133.03 -135.63 -145.09 -133.91 -139.02 -118.88 -133.87 -103.96 -129.8 -89.17 -126.87 -74.5" fill="url(#uuunion-grad2)" filter="url(#uuunion-blur)"></path><path d="M1403.49 314.92Q1412.23 321.01 1420.97 326.97 1429.72 332.13 1438.46 335.89 1447.2 337.8 1455.94 337.66 1464.69 335.47 1473.43 331.49 1482.17 326.18 1490.92 320.15 1499.66 314.11 1508.4 308.75 1517.15 304.69 1525.89 302.4 1534.63 302.15 1543.38 303.96 1557.4 321.07 1572.11 338.18 1586.03 355.29 1597.75 372.4 1606.1 389.51 1610.25 406.62 1609.78 423.73 1604.72 440.84 1595.6 457.95 1583.33 475.06 1569.13 492.17 1554.44 509.28 1540.73 526.39 1529.38 543.5 1521.52 560.61 1517.94 577.72 1519.01 594.83 1524.61 611.94 1534.19 629.05 1546.78 646.16 1561.12 663.27 1575.76 680.38 1589.25 697.49 1600.22 714.6 1607.57 731.71 1610.57 748.82 1608.92 765.93 1602.77 783.04 1592.75 800.15 1579.87 817.26 1565.41 834.37 1550.83 851.48 1538.73 848 1526.63 851.46 1514.53 861.11 1502.43 874.87 1490.33 889.74 1478.23 902.5 1466.12 910.36 1454.02 911.64 1441.92 906.04 1429.82 894.79 1417.72 880.32 1405.62 865.79 1393.52 854.34 1381.42 848.46 1369.32 849.43 1357.22 857.03 1345.12 869.63 1333.02 884.47 1320.92 898.34 1308.82 908.23 1296.72 911.99 1284.62 908.8 1272.52 899.35 1260.42 885.7 1248.32 870.82 1236.21 857.92 1224.11 849.82 1212.01 848.27 1199.91 853.61 1187.81 864.68 1175.71 879.07 1163.61 893.67 1151.51 905.3 1139.41 911.43 1127.31 910.73 1115.21 903.37 1103.11 890.92 1091.01 876.11 1078.91 862.13 1066.81 852.04 1054.71 848.02 1042.61 850.94 1030.51 860.17 1018.41 873.7 1006.31 888.61 994.2 901.64 982.1 909.97 970 911.79 957.9 906.71 945.8 895.83 933.7 881.51 921.6 866.86 909.5 855.06 897.4 848.68 885.3 849.1 873.2 856.22 861.1 868.51 849 883.3 836.9 897.36 824.8 907.66 812.7 911.94 800.6 909.29 788.5 900.28 776.4 886.87 764.3 871.96 752.19 858.79 740.09 850.23 727.99 848.14 715.89 852.96 703.79 863.65 691.69 877.89 679.59 892.59 667.49 904.55 655.39 911.18 643.29 911.04 631.19 904.16 619.09 892.03 606.99 877.29 594.89 863.13 582.79 852.64 570.69 848.09 558.59 850.46 546.49 859.25 534.39 872.55 522.29 887.46 510.18 900.75 498.08 909.53 485.98 911.9 473.88 907.35 461.78 896.85 449.68 882.69 437.58 867.95 425.48 855.82 413.38 848.94 401.28 848.81 389.18 855.45 377.08 867.41 364.98 882.11 352.88 896.35 340.78 907.04 328.68 911.85 316.58 909.75 304.48 901.19 292.38 888.02 280.27 873.11 268.17 859.7 256.07 850.69 243.97 848.05 231.87 852.34 219.77 862.64 207.67 876.71 195.57 891.49 183.47 903.78 171.37 910.9 159.27 911.31 147.17 904.92 135.07 893.12 122.97 878.47 110.87 864.15 98.77 853.27 86.67 848.2 74.57 850.03 62.47 858.36 50.37 871.4 38.26 886.3 26.16 899.83 7.1 905.39 -1.73 891.47 -3.58 881.22 -5.34 870.97 -6.96 860.72 -8.38 850.47 -9.75 835.11 -9.42 830 3.1 820.21 15.78 804.48 28.6 785.03 41.54 764.86 54.59 747.12 67.72 734.39 80.92 728.06 94.16 728.09 107.43 732.99 120.71 740.2 133.97 746.65 147.2 749.49 160.39 746.7 173.51 737.57 186.55 722.82 199.51 704.42 212.37 685.17 225.14 667.99 237.79 655.34 250.35 648.61 262.8 647.83 275.15 651.7 287.41 657.88 299.59 663.56 311.69 666.03 323.75 663.38 335.76 654.84 347.74 641.02 359.72 623.68 371.71 605.36 383.72 588.79 395.78 576.29 407.91 569.21 420.11 567.67 432.41 570.53 444.82 575.7 457.35 580.56 470 582.62 482.79 580.03 495.72 572.04 508.8 559.1 522.01 542.79 535.36 525.42 548.83 509.51 562.42 497.22 576.12 489.86 589.9 487.61 603.76 489.5 617.66 493.65 631.58 497.67 645.51 499.26 659.42 496.68 673.28 489.16 687.06 477.07 700.74 461.77 714.29 445.37 727.69 430.15 740.92 418.13 753.95 410.55 766.77 407.65 779.36 408.61 791.71 411.73 803.81 414.89 815.65 415.96 825.42 417.97 835.17 417.33 844.91 413.95 854.63 408.13 864.33 400.52 874.01 391.99 883.67 383.56 893.32 376.21 902.94 370.77 912.55 367.83 922.13 367.61 931.7 369.95 941.25 374.36 950.77 380.04 960.28 386.04 969.77 391.35 979.23 395.08 988.68 396.54 998.1 395.36 1007.51 391.55 1016.89 385.47 1026.26 377.78 1035.6 369.38 1044.92 361.27 1054.23 354.38 1063.51 349.49 1072.77 347.09 1082.01 347.34 1091.23 350.02 1100.43 354.58 1109.61 360.21 1118.77 365.96 1127.92 370.86 1137.04 374.08 1146.14 374.99 1155.23 373.31 1164.29 369.11 1173.34 362.8 1182.37 355.08 1191.38 346.86 1200.38 339.09 1209.36 332.68 1218.32 328.32 1227.26 326.45 1236.19 327.14 1245.11 330.11 1254 334.77 1262.89 340.31 1271.76 345.78 1280.62 350.26 1289.46 352.96 1298.29 353.34 1307.11 351.19 1315.92 346.63 1324.71 340.14 1333.5 332.44 1342.28 324.42 1351.04 317.03 1359.8 311.1 1368.55 307.27 1377.3 305.89 1386.03 306.98 1394.76 310.2 1403.49 314.92" fill="url(#uuunion-grad3)" filter="url(#uuunion-blur2)"></path></svg>